<?xml version="1.0" encoding="UTF-8" standalone="no"?><!DOCTYPE svg PUBLIC "-//W3C//DTD SVG 1.1//EN" "http://www.w3.org/Graphics/SVG/1.1/DTD/svg11.dtd"><svg width="100%" height="100%" viewBox="0 0 521 521" version="1.1" xmlns="http://www.w3.org/2000/svg" xmlns:xlink="http://www.w3.org/1999/xlink" xml:space="preserve" xmlns:serif="http://www.serif.com/" style="fill-rule:evenodd;clip-rule:evenodd;"><path id="path2473-0" d="M28.75,225c21.667,71.667 97.083,112.083 168.75,90.833c71.667,-21.667 112.083,-97.083 90.833,-168.75c-21.667,-72.083 -97.083,-112.5 -168.75,-90.833c-71.667,21.667 -112.5,97.083 -90.833,168.75Z" style="fill:#fff;fill-rule:nonzero;stroke:#000;stroke-width:5.21px;"/><path id="path2481-8" d="M222.917,326.667c70.833,-31.667 109.167,-110.417 86.667,-185c-15,-50 -53.75,-85.833 -100.417,-100.833c122.5,18.75 233.75,116.667 276.25,257.083c17.917,59.583 21.25,119.167 12.5,175c-39.583,-108.333 -156.667,-170 -275,-146.25Z" style="fill:#1c2128;fill-rule:nonzero;"/><path id="path2477-4" d="M62.917,260.833c9.583,31.25 42.5,49.167 74.167,39.583c31.25,-9.583 49.167,-42.5 39.583,-74.167c-9.583,-31.25 -42.5,-49.167 -74.167,-39.583c-31.25,9.583 -49.167,42.5 -39.583,74.167Z" style="fill:#1c2128;fill-rule:nonzero;"/></svg>